<svg width="127" height="22" viewBox="0 0 127 22" fill="none" xmlns="http://www.w3.org/2000/svg">
  <g clip-path="url(#clip0_102_11)">
    <path d="M50.58 1.42969H54.45C55.21 1.42969 55.71 1.55969 56.13 1.78969C56.97 2.24969 57.54 3.10969 57.54 4.23969C57.54 4.82969 57.32 5.35969 56.93 5.79969C57.75 6.25969 58.36 7.04969 58.36 8.07969C58.36 9.17969 57.82 10.0497 57 10.5297C56.56 10.7797 56.05 10.9297 55.26 10.9297H50.59V1.42969H50.58ZM54.24 5.22969C54.62 5.22969 54.79 5.19969 54.96 5.13969C55.35 4.97969 55.64 4.67969 55.64 4.21969C55.64 3.75969 55.34 3.45969 54.96 3.29969C54.8 3.22969 54.63 3.19969 54.23 3.19969H52.56V5.23969H54.24V5.22969ZM54.85 9.11969C55.26 9.11969 55.46 9.07969 55.65 9.00969C56.06 8.83969 56.39 8.50969 56.39 7.98969C56.39 7.50969 56.08 7.15969 55.65 6.98969C55.47 6.91969 55.27 6.87969 54.84 6.87969H52.56V9.09969H54.85V9.11969Z" fill="white"/>
    <path d="M59.65 1.41992H61.63V10.9199H59.65V1.41992Z" fill="white"/>
    <path d="M71.17 1.41992V3.24992H68.04V10.9099H66.06V3.24992H62.94V1.41992H71.17Z" fill="white"/>
    <path d="M79.09 5.29016C78.69 4.00016 77.71 3.22016 76.37 3.22016C74.71 3.22016 73.57 4.50016 73.57 6.17016C73.57 7.84016 74.68 9.10016 76.37 9.10016C77.7 9.10016 78.68 8.34016 79.09 7.00016L80.98 7.58016C80.41 9.57016 78.54 10.9102 76.37 10.9102C73.73 10.9102 71.53 8.87016 71.53 6.16016C71.53 3.45016 73.64 1.41016 76.38 1.41016C78.48 1.41016 80.33 2.56016 80.97 4.67016L79.1 5.28016L79.09 5.29016Z" fill="white"/>
    <path d="M86.57 10.9199C83.79 10.9199 81.73 8.83992 81.73 6.16992C81.73 3.49992 83.79 1.41992 86.57 1.41992C89.35 1.41992 91.41 3.50992 91.41 6.16992C91.41 8.82992 89.36 10.9199 86.57 10.9199ZM86.57 3.24992C84.87 3.24992 83.77 4.53992 83.77 6.17992C83.77 7.81992 84.87 9.09992 86.57 9.09992C88.27 9.09992 89.38 7.81992 89.38 6.17992C89.38 4.53992 88.28 3.24992 86.57 3.24992Z" fill="white"/>
    <path d="M92.74 1.41992H94.72V10.9199H92.74V1.41992Z" fill="white"/>
    <path d="M96.51 10.9199V1.41992H97.59L103.22 7.42992V1.41992H105.2V10.9199H104.12L98.49 4.90992V10.9199H96.51Z" fill="white"/>
    <path d="M51.87 11.4004L53.48 17.7104L55.36 11.4004H57.03L58.87 17.7004L60.48 11.4004H62.54L60 20.8904H58.09L56.18 14.7804L54.22 20.8904H52.34L49.8 11.4004H51.86H51.87Z" fill="white"/>
    <path d="M67.84 20.8799C65.06 20.8799 63 18.7999 63 16.1299C63 13.4599 65.06 11.3799 67.84 11.3799C70.62 11.3799 72.68 13.4699 72.68 16.1299C72.68 18.7999 70.62 20.8799 67.84 20.8799ZM67.84 13.2099C66.14 13.2099 65.04 14.4999 65.04 16.1399C65.04 17.7799 66.14 19.0599 67.84 19.0599C69.54 19.0599 70.65 17.7799 70.65 16.1399C70.65 14.5099 69.55 13.2099 67.84 13.2099Z" fill="white"/>
    <path d="M74 20.8806V11.3906H78.64C79.45 11.3906 80.01 11.5406 80.46 11.8306C81.23 12.3006 81.72 13.1406 81.72 14.2306C81.72 14.8406 81.55 15.4006 81.24 15.8506C80.91 16.3306 80.46 16.6406 79.96 16.8106L79.87 16.8506L82.28 20.8806H80L77.76 17.0406H75.97V20.8806H73.99H74ZM78.38 15.2306C78.76 15.2306 78.94 15.2106 79.1 15.1406C79.47 14.9906 79.77 14.6806 79.77 14.2306C79.77 13.7806 79.49 13.4706 79.1 13.3206C78.94 13.2506 78.76 13.2206 78.37 13.2206H75.97V15.2306H78.38Z" fill="white"/>
    <path d="M85.33 11.3799V19.0499H90.02V20.8799H83.34V11.3799H85.33Z" fill="white"/>
    <path d="M96.23 11.6199C98.17 12.2099 99.59 13.9599 99.59 16.1399C99.59 18.3199 98.16 20.0599 96.23 20.6599C95.76 20.7999 95.27 20.8799 94.5 20.8799H91.24V11.3799H94.5C95.27 11.3799 95.76 11.4699 96.23 11.6099V11.6199ZM95.95 18.8099C96.98 18.3499 97.6 17.3299 97.6 16.1399C97.6 14.9499 96.97 13.9299 95.95 13.4699C95.59 13.3099 95.19 13.2199 94.5 13.2199H93.22V19.0699H94.5C95.2 19.0699 95.6 18.9699 95.95 18.8199V18.8099Z" fill="white"/>
    <path d="M31.15 6.08004H36.23L33.69 3.54004L31.15 6.08004Z" fill="#E3923B"/>
    <path d="M36.23 6.08V1L33.69 3.54L36.23 6.08Z" fill="#EA8724"/>
    <path d="M36.23 1H31.15L33.69 3.54L36.23 1Z" fill="#E29D59"/>
    <path d="M33.69 3.54L31.15 1V6.08L33.69 3.54Z" fill="#EFAE6F"/>
    <path d="M36.23 11.1504H41.3L38.76 8.61035L36.23 11.1504Z" fill="#E3923B"/>
    <path d="M41.3 11.1501V6.08008L38.76 8.61008L41.3 11.1501Z" fill="#EA8724"/>
    <path d="M41.3 6.08008H36.23L38.76 8.61008L41.3 6.08008Z" fill="#E29D59"/>
    <path d="M38.76 8.61008L36.23 6.08008V11.1501L38.76 8.61008Z" fill="#EFAE6F"/>
    <path d="M26.08 21.3007H31.15L28.61 18.7607L26.08 21.3007Z" fill="#E3923B"/>
    <path d="M31.15 21.3005V16.2305L28.61 18.7605L31.15 21.3005Z" fill="#EA8724"/>
    <path d="M31.15 16.2305H26.08L28.61 18.7605L31.15 16.2305Z" fill="#E29D59"/>
    <path d="M28.61 18.7605L26.08 16.2305V21.3005L28.61 18.7605Z" fill="#EFAE6F"/>
    <path d="M36.23 21.3007H41.3L38.76 18.7607L36.23 21.3007Z" fill="#E3923B"/>
    <path d="M41.3 21.3005V16.2305L38.76 18.7605L41.3 21.3005Z" fill="#EA8724"/>
    <path d="M41.3 16.2305H36.23L38.76 18.7605L41.3 16.2305Z" fill="#E29D59"/>
    <path d="M38.76 18.7605L36.23 16.2305V21.3005L38.76 18.7605Z" fill="#EFAE6F"/>
    <path d="M31.16 6.08008H26.08V11.1601H31.16V6.08008Z" fill="#07498C"/>
    <path d="M36.23 11.1504H31.15V16.2304H36.23V11.1504Z" fill="#07498C"/>
    <path d="M26.08 6.08008H21V11.1601H26.08V6.08008Z" fill="#467EBF"/>
    <path d="M31.16 11.1504H26.08V16.2304H31.16V11.1504Z" fill="#467EBF"/>
    <path d="M26.08 11.1504H21V16.2304H26.08V11.1504Z" fill="#A5C3DB"/>
    <path d="M46.38 11.1504H41.3V16.2304H46.38V11.1504Z" fill="#A5C3DB"/>
</g>
<defs>
    <clipPath id="clip0_102_11">
        <rect width="84.2" height="20.3" fill="white" transform="translate(21 1)"/>
    </clipPath>
</defs>
</svg>
